<?xml version="1.0" encoding="UTF-8" standalone="no"?>
<!-- Created with Inkscape (http://www.inkscape.org/) -->

<svg
   width="30.32094mm"
   height="9.7070045mm"
   viewBox="0 0 30.32094 9.7070045"
   version="1.1"
   id="svg21"
   xml:space="preserve"
   xmlns="http://www.w3.org/2000/svg"><defs
     id="defs18"><rect
       x="30.801214"
       y="31.465315"
       width="71.575081"
       height="42.258793"
       id="rect129" /></defs><g
     id="layer1"
     transform="translate(-1.2470676,-11.134863)"><g
       id="g293"><g
         aria-label="ST3"
         transform="matrix(0.36552071,0,0,0.36552071,2.6477194,-1.1257486)"
         id="text127"
         style="font-weight:800;font-size:26.6667px;font-family:Manrope;-inkscape-font-specification:'Manrope Ultra-Bold';white-space:pre;shape-inside:url(#rect129);fill:#00ff00"><path
           d="m 39.920793,56.008359 q -2.133336,0 -3.853338,-0.746667 -1.706669,-0.760001 -2.813337,-2.160003 -1.093335,-1.413335 -1.386669,-3.360004 l 3.786672,-0.560001 q 0.4,1.653336 1.653335,2.54667 1.253335,0.893334 2.853337,0.893334 0.893335,0 1.733336,-0.28 0.840001,-0.28 1.373335,-0.826668 0.546667,-0.546667 0.546667,-1.346668 0,-0.293334 -0.09333,-0.560001 -0.08,-0.28 -0.280001,-0.52 -0.2,-0.240001 -0.573334,-0.453334 -0.36,-0.213334 -0.920001,-0.386667 l -4.986673,-1.466669 q -0.560001,-0.16 -1.306668,-0.453334 -0.733335,-0.293334 -1.426669,-0.840001 -0.693334,-0.546667 -1.160001,-1.440002 -0.453334,-0.906668 -0.453334,-2.280003 0,-1.933335 0.973334,-3.213337 0.973335,-1.280002 2.600004,-1.906669 1.626668,-0.626668 3.600004,-0.613334 1.986669,0.02667 3.546671,0.680001 1.560002,0.653334 2.613337,1.906669 1.053335,1.240001 1.520002,3.040004 l -3.920005,0.666667 q -0.213334,-0.933334 -0.786668,-1.573335 -0.573334,-0.640001 -1.373335,-0.973335 -0.786667,-0.333334 -1.653335,-0.36 -0.853335,-0.02667 -1.613336,0.24 -0.746667,0.253334 -1.226668,0.746668 -0.466667,0.493334 -0.466667,1.173334 0,0.626668 0.386667,1.026668 0.386667,0.386668 0.973335,0.626668 0.586667,0.24 1.200001,0.4 l 3.333338,0.906668 q 0.746667,0.2 1.653335,0.533334 0.906668,0.320001 1.733336,0.906668 0.840001,0.573334 1.373335,1.520002 0.546667,0.946668 0.546667,2.400003 0,1.546669 -0.653334,2.70667 -0.640001,1.146668 -1.733336,1.906669 -1.093334,0.746668 -2.480003,1.120002 -1.373335,0.373333 -2.840003,0.373333 z"
           id="path279" /><path
           d="M 55.014132,55.608359 V 39.795006 h -6.053341 v -3.386671 h 15.733353 v 3.386671 h -6.053341 v 15.813353 z"
           id="path281" /><path
           d="m 72.427453,55.955026 q -1.440001,0 -2.74667,-0.573334 -1.306668,-0.586667 -2.280003,-1.640002 -0.960001,-1.053335 -1.373335,-2.480003 l 3.520005,-0.933335 q 0.28,1.053335 1.093334,1.640002 0.826668,0.573334 1.786669,0.573334 0.826668,0 1.506669,-0.4 0.693334,-0.400001 1.093335,-1.080002 0.413334,-0.68 0.413334,-1.506668 0,-1.240002 -0.853335,-2.120003 -0.840001,-0.893334 -2.160003,-0.893334 -0.4,0 -0.773334,0.12 -0.373334,0.106667 -0.720001,0.306667 l -1.626669,-2.853337 6.106675,-5.066673 0.266667,0.773334 h -8.906678 v -3.413337 h 12.000015 v 3.413337 l -4.746673,4.586673 -0.02667,-1.013335 q 1.653335,0.253334 2.78667,1.160002 1.146668,0.893334 1.733335,2.213336 0.600001,1.306668 0.600001,2.78667 0,1.813336 -0.920001,3.266671 -0.920001,1.440002 -2.440003,2.293336 -1.520002,0.840001 -3.333338,0.840001 z"
           id="path283" /></g><rect
         style="fill:#00ff00;stroke-width:0.24775"
         id="rect347"
         width="0.98388463"
         height="9.0397711"
         x="11.832889"
         y="11.228149" /><g
         style="fill:#00ff00"
         id="g547"
         transform="matrix(0.07137523,0,0,0.07137523,1.2470677,11.134863)"><path
           d="M 24.7219,107.666 C 48.2285,92.6289 71.9469,77.5917 95.4536,62.5546 95.2418,61.9192 94.8183,61.0721 94.6065,60.4367 84.865,62.131 74.9117,63.8254 65.1702,65.3079 59.4524,66.1551 53.7346,66.7904 48.0168,66.5786 36.1575,66.155 31.9221,57.8952 38.0635,47.7293 40.1812,44.3406 42.7225,40.7402 45.6873,38.1987 60.2995,25.9148 75.1235,14.0546 89.7357,1.98249 90.7946,1.13533 92.0652,0.288181 93.3359,0.0763904 94.3947,-0.1354 96.3007,0.0763774 96.936,0.92354 c 0.8471,1.27074 1.4824,3.60045 0.6353,4.44761 -2.3295,2.96507 -4.8708,5.50655 -7.6238,8.04805 -11.4357,9.9542 -23.2949,19.9083 -34.7305,30.0742 -3.3884,2.9651 -6.1414,6.9892 -10.5886,12.2839 5.7178,0 9.1062,0.4236 12.4945,0 15.0358,-2.5414 30.0716,-5.5066 45.1071,-8.048 3.389,-0.6354 6.777,-1.4826 10.165,-0.8472 2.965,0.4236 6.777,1.9061 8.471,4.2358 2.541,3.3887 0.424,7.2009 -2.541,9.9542 -2.753,2.5415 -5.506,5.083 -8.683,7.2009 -18.8474,12.2838 -37.4833,24.3559 -56.331,36.64 -2.9648,1.906 -5.9296,4.024 -10.8003,7.201 12.7063,0.211 22.236,-6.989 35.1541,-2.754 -3.3884,3.177 -5.2943,5.507 -7.6238,6.778 -18.6359,9.107 -38.5424,15.249 -58.8725,19.484 C 2.69764,137.528 -1.96134,132.022 0.791693,123.55 2.06232,119.738 3.7565,115.926 6.29775,112.749 13.0744,103.854 20.0629,95.1704 27.2631,86.487 c 1.2707,-1.4826 4.2355,-2.7533 5.7179,-2.3297 3.1765,1.2707 2.753,4.4475 1.2706,6.989 -3.1766,5.5066 -6.7767,11.0127 -10.165,16.3077 0,-0.423 0.4235,0 0.6353,0.212 z"
           fill="#0d1927"
           id="path538"
           style="fill:#00ff00" /></g></g></g></svg>
